<svg aria-hidden="true" style="position: absolute; width: 0; height: 0; overflow: hidden;" version="1.1" xmlns="http://www.w3.org/2000/svg" xmlns:xlink="http://www.w3.org/1999/xlink">
<defs>
<symbol id="icon-warning" viewBox="0 0 32 32">
<path fill="#ff8d00" style="fill: var(--color1, #ff8d00)" d="M30.667 28h-29.333l14.667-25.333 14.667 25.333zM14.667 24h2.667v-2.667h-2.667v2.667zM14.667 18.667h2.667v-5.333h-2.667v5.333z"></path>
</symbol>
<symbol id="icon-warning-cross" viewBox="0 0 32 32">
<path fill="#889099" style="fill: var(--color1, #889099)" d="M32 3.223l-3.223-3.223-12.777 12.777-12.777-12.777-3.223 3.223 12.777 12.777-12.777 12.777 3.223 3.223 12.777-12.777 12.777 12.777 3.223-3.223-12.777-12.777 12.777-12.777z"></path>
</symbol>
<symbol id="icon-mob-menu" viewBox="0 0 48 32">
<path d="M0 2c0-1.105 0.895-2 2-2v0h44c1.105 0 2 0.895 2 2s-0.895 2-2 2v0h-44c-1.105 0-2-0.895-2-2v0zM0 30c0-1.105 0.895-2 2-2v0h44c1.105 0 2 0.895 2 2s-0.895 2-2 2v0h-44c-1.105 0-2-0.895-2-2v0zM2 14c-1.105 0-2 0.895-2 2s0.895 2 2 2v0h44c1.105 0 2-0.895 2-2s-0.895-2-2-2v0h-44z"></path>
</symbol>
<symbol id="icon-comment" viewBox="0 0 32 32">
<path fill="none" stroke="#889099" style="stroke: var(--color1, #889099)" stroke-linejoin="miter" stroke-linecap="butt" stroke-miterlimit="4" stroke-width="2" d="M5 26v-1h-3c-0.622 0-1-0.404-1-0.904v-21.956c0-0.654 0.53-1.14 1-1.14h28c0.47 0 1 0.486 1 1.14v21.956c0 0.5-0.378 0.904-1 0.904h-13.684l-10.962 5.688c-0.101 0.052-0.218 0.097-0.341 0.128l-0.011 0.002-0.002-0.066v-4.752z"></path>
</symbol>
<symbol id="icon-search" viewBox="0 0 32 32">
<path d="M31.008 27.231l-7.58-6.447c-0.784-0.705-1.622-1.029-2.299-0.998 1.789-2.096 2.87-4.815 2.87-7.787 0-6.627-5.373-12-12-12s-12 5.373-12 12 5.373 12 12 12c2.972 0 5.691-1.081 7.787-2.87-0.031 0.677 0.293 1.515 0.998 2.299l6.447 7.58c1.104 1.226 2.907 1.33 4.007 0.23s0.997-2.903-0.23-4.007zM12 20c-4.418 0-8-3.582-8-8s3.582-8 8-8 8 3.582 8 8-3.582 8-8 8z"></path>
</symbol>
<symbol id="icon-bell" viewBox="0 0 32 32">
<path fill="none" stroke="#46b843" style="stroke: var(--color1, #46b843)" stroke-linejoin="miter" stroke-linecap="butt" stroke-miterlimit="4" stroke-width="1.6" d="M27.251 18.495v0.185l0.081 0.166 3.143 6.435c0.105 0.214 0.092 0.467-0.034 0.67s-0.348 0.325-0.586 0.326h-10.007v0.945c0 2.197-1.781 3.979-3.979 3.979s-3.979-1.781-3.979-3.979v-0.945h-9.999c-0.238-0-0.46-0.123-0.586-0.326s-0.139-0.455-0.034-0.67l0-0.001 3.224-6.6v-6.324h0l-0-0.009c-0.051-4.642 2.785-8.828 7.115-10.502l0.006-0.002 0.006-0.002 0.001-0 0.002-0.001 0.015-0.006c0.014-0.006 0.037-0.014 0.066-0.026 0.060-0.023 0.15-0.056 0.265-0.096 0.231-0.081 0.564-0.189 0.961-0.298 0.804-0.219 1.838-0.429 2.835-0.429 0.999 0 2.089 0.21 2.952 0.432 0.426 0.109 0.787 0.219 1.040 0.301 0.126 0.041 0.225 0.075 0.291 0.098 0.033 0.012 0.058 0.020 0.074 0.026l0.014 0.005c4.294 1.718 7.111 5.877 7.113 10.503 0 0 0 0 0 0v6.147z"></path>
</symbol>
<symbol id="icon-volume" viewBox="0 0 34 32">
<path fill="#46b843" style="fill: var(--color1, #46b843)" d="M22.806 10.25v0zM22.805 10.249l-1.104 1.103 0.001 0.001 1.104-1.104zM31.465 29.659v1.561h1.645l-0.086-1.642-1.559 0.081zM28.606 29.659l-1.558 0.089 0.084 1.472h1.474v-1.561zM3.41 4.428h-1.561v1.473l1.471 0.085 0.090-1.558zM3.41 1.587l0.082-1.559-1.643-0.086v1.645h1.561zM27.071 30.232l-1.56 0.060 0 0.002 1.56-0.062zM2.837 5.963l-0.062 1.56 0.001 0 0.060-1.56zM33.051 30.232l-1.56 0.049 0 0.002 1.56-0.051zM23.91 9.146l-1.104 1.103 0.001 0.001 1.104-1.104zM2.837 0.001l-0.051 1.56 0.001 0 0.049-1.56zM16.4 16.646l-1.105 1.103 0.001 0.001 1.104-1.103zM2.829 10.623l0.073-1.559-0.005-0-0.068 1.559zM22.423 30.232v0zM16.431 30.236v0zM12.179 20.851l-1.105 1.102 0.003 0.003 1.102-1.105zM2.829 16.593l-0.108 1.557 0.003 0 0.104-1.558zM3.41 12.224l0.127-1.556-1.688-0.137v1.693h1.561zM15.295 17.749l-1.105 1.103 0.002 0.002 1.102-1.105zM3.41 15.075h-1.561v1.418l1.411 0.136 0.15-1.554zM13.283 19.747l-1.105 1.102 0.003 0.003 1.102-1.105zM17.95 29.659l-1.554 0.148 0.135 1.413h1.419v-1.561zM20.822 29.659v1.561h1.694l-0.138-1.688-1.556 0.127zM15.295 17.75l1.104-1.103-0.002-0.002-1.102 1.105zM23.91 9.146l-0.001-0.001-2.207 2.208 2.208-2.208zM33.024 29.577c-0.415-7.957-3.821-15.141-9.114-20.432l-2.207 2.208c4.769 4.767 7.83 11.23 8.203 18.386l3.118-0.163zM28.606 31.22h2.859v-3.122h-2.859v3.122zM3.32 5.987c12.744 0.738 22.995 11 23.727 23.761l3.117-0.179c-0.823-14.342-12.334-25.87-26.664-26.699l-0.18 3.117zM1.849 1.587v2.841h3.122v-2.841h-3.122zM23.91 9.146c-5.295-5.3-12.465-8.701-20.418-9.118l-0.163 3.118c7.151 0.375 13.602 3.431 18.372 8.206l2.209-2.206zM28.63 30.173c-0.535-13.961-11.788-25.228-25.733-25.769l-0.121 3.12c12.313 0.478 22.262 10.435 22.735 22.769l3.12-0.119zM28.066 29.659c0.362 0 0.555 0.279 0.565 0.512l-3.119 0.124c0.052 1.31 1.112 2.486 2.555 2.486v-3.122zM32.093 29.659h-4.027v3.122h4.027v-3.122zM31.491 30.283c-0.011-0.349 0.264-0.625 0.602-0.625v3.122c1.415 0 2.565-1.174 2.518-2.599l-3.12 0.102zM22.806 10.25c5.169 5.167 8.44 12.228 8.685 20.032l3.12-0.098c-0.271-8.629-3.891-16.436-9.598-22.142l-2.207 2.208zM2.787 1.561c7.8 0.246 14.847 3.512 20.018 8.688l2.209-2.206c-5.709-5.715-13.503-9.33-22.128-9.602l-0.099 3.12zM3.41 0.961c0 0.332-0.272 0.612-0.624 0.6l0.101-3.12c-1.433-0.047-2.599 1.111-2.599 2.52h3.122zM3.41 4.968v-4.008h-3.122v4.008h3.122zM2.899 4.404c0.235 0.009 0.512 0.205 0.512 0.565h-3.122c0 1.437 1.17 2.503 2.486 2.555l0.124-3.12zM17.504 15.543c-3.773-3.779-8.907-6.213-14.602-6.48l-0.146 3.119c4.884 0.229 9.291 2.314 12.539 5.567l2.209-2.206zM23.982 30.158c-0.273-5.692-2.695-10.829-6.478-14.615l-2.208 2.207c3.257 3.258 5.334 7.67 5.568 12.557l3.118-0.15zM21.473 32.781c1.411 0 2.578-1.174 2.509-2.622l-3.119 0.147c-0.017-0.37 0.276-0.647 0.609-0.647v3.122zM17.44 32.781h4.033v-3.122h-4.033v3.122zM14.873 30.339c0.084 1.272 1.125 2.442 2.566 2.442v-3.122c0.178 0 0.32 0.076 0.406 0.161 0.082 0.081 0.135 0.19 0.143 0.314l-3.115 0.205zM11.077 21.957c2.255 2.248 3.585 5.207 3.796 8.383l3.115-0.207c-0.261-3.922-1.908-7.597-4.707-10.387l-2.204 2.211zM2.725 18.151c3.149 0.211 6.096 1.542 8.349 3.802l2.211-2.204c-2.789-2.798-6.448-4.452-10.351-4.713l-0.209 3.115zM0.288 15.583c0 1.433 1.154 2.48 2.433 2.568l0.215-3.115c0.206 0.014 0.474 0.191 0.474 0.546h-3.122zM0.288 11.577v4.006h3.122v-4.006h-3.122zM2.897 9.063c-1.457-0.064-2.609 1.117-2.609 2.514h3.122c0 0.316-0.266 0.622-0.65 0.605l0.136-3.119zM3.284 13.78c4.238 0.345 8.056 2.216 10.906 5.072l2.209-2.206c-3.353-3.358-7.855-5.57-12.862-5.978l-0.253 3.112zM4.971 15.075v-2.851h-3.122v2.851h3.122zM14.388 18.645c-2.931-2.94-6.745-4.73-10.828-5.124l-0.3 3.107c3.362 0.325 6.499 1.796 8.917 4.221l2.211-2.204zM19.504 29.51c-0.392-4.1-2.173-7.931-5.119-10.868l-2.204 2.211c2.424 2.417 3.892 5.569 4.215 8.955l3.108-0.297zM20.822 28.098h-2.872v3.122h2.872v-3.122zM14.191 18.853c2.86 2.862 4.727 6.687 5.074 10.933l3.112-0.255c-0.41-5.011-2.614-9.52-5.978-12.885l-2.208 2.207zM14.192 18.854l0.001 0.001 2.204-2.211-2.205 2.21z"></path>
<path fill="none" stroke="#46b843" style="stroke: var(--color1, #46b843)" stroke-linejoin="miter" stroke-linecap="butt" stroke-miterlimit="4" stroke-width="1.561" d="M9.315 27.147c0 2.249-1.823 4.072-4.072 4.072s-4.072-1.823-4.072-4.072c0-2.249 1.823-4.072 4.072-4.072s4.072 1.823 4.072 4.072z"></path>
</symbol>

<symbol id="icon-facebook" viewBox="0 0 16 32">
<path d="M10.381 32v-14.595h4.718l0.705-5.689h-5.424v-3.627c0-1.653 0.437-2.765 2.718-2.765h2.903v-5.104c-0.507-0.073-2.225-0.219-4.225-0.219-4.183 0-7.043 2.647-7.043 7.518v4.198h-4.731v5.689h4.731v14.595h5.649z"></path>
</symbol>
<symbol id="icon-twitter" viewBox="0 0 39 32">
<path d="M38.957 3.786c-1.433 0.643-2.972 1.078-4.589 1.273 1.655-1.017 2.897-2.569 3.497-4.41l0.016-0.057c-1.461 0.89-3.162 1.57-4.975 1.944l-0.103 0.018c-1.453-1.572-3.526-2.553-5.828-2.553-0.002 0-0.004 0-0.006 0h0c-4.413 0-7.992 3.619-7.992 8.079 0 0.633 0.071 1.251 0.209 1.842-6.642-0.338-12.53-3.555-16.473-8.445-0.679 1.159-1.080 2.551-1.080 4.038 0 0.009 0 0.018 0 0.026v-0.001c-0 0.006-0 0.013-0 0.020 0 2.777 1.397 5.228 3.527 6.687l0.028 0.018c-1.337-0.046-2.578-0.417-3.659-1.035l0.039 0.020v0.102c0 3.914 2.755 7.179 6.41 7.923-0.671 0.182-1.376 0.284-2.106 0.284-0.515 0-1.016-0.053-1.504-0.15 1.017 3.213 3.968 5.549 7.463 5.613-2.691 2.152-6.144 3.453-9.901 3.453-0.008 0-0.016 0-0.024-0h0.001c-0.646 0-1.28-0.039-1.906-0.111 3.451 2.28 7.686 3.637 12.237 3.637 0.004 0 0.008 0 0.012 0h-0.001c14.702 0 22.737-12.313 22.737-22.993l-0.026-1.046c1.579-1.15 2.906-2.534 3.96-4.115l0.037-0.059z"></path>
</symbol>
<symbol id="icon-google" viewBox="0 0 49 32">
<path d="M30.615 13.905c0.145 0.899 0.294 1.795 0.294 2.692 0 4.636-1.324 8.374-4.268 11.066-2.799 2.841-6.332 4.336-10.895 4.336-4.415 0-8.095-1.495-11.185-4.636s-4.561-6.879-4.561-11.364c0-4.486 1.472-8.224 4.563-11.364s6.771-4.636 11.185-4.636c4.122 0 7.654 1.345 10.598 4.186l-4.266 4.189c-1.62-1.644-3.827-2.393-6.33-2.393-2.649 0-5.004 1.047-6.918 2.991-1.913 2.095-2.943 4.486-2.943 7.178 0 2.841 1.030 5.233 2.943 7.177 1.914 1.945 4.269 2.991 6.918 2.991 2.208 0 4.122-0.596 5.888-1.793 1.766-1.345 2.797-2.991 3.091-5.084h-8.979v-5.536h14.865zM49.455 18.544h-4.416v4.636h-4.563v-4.636h-4.563v-4.639h4.563v-4.634h4.563v4.634h4.416v4.636z"></path>
</symbol>
<symbol id="icon-linkedin" viewBox="0 0 32 32">
<path  d="M30.024 0h-27.456c-1.314 0-2.568 0.893-2.568 2.168v27.599c0 1.273 1.254 2.233 2.568 2.233h27.456c1.314 0 1.976-0.959 1.976-2.233v-27.6c0-1.273-0.661-2.167-1.976-2.167z"></path>
<path fill="#fff" style="fill: var(--color2, #fff)" d="M9.455 26.909h-4.365v-14.545h4.365v14.545zM7.52 10.183h-0.033c-1.632 0-2.69-1.061-2.69-2.457 0-1.426 1.089-2.485 2.754-2.485s2.689 1.043 2.72 2.47c0 1.398-1.055 2.472-2.751 2.472zM27.634 26.91h-5.090v-7.863c0-1.957-0.661-3.291-2.419-3.291-1.346 0-2.152 0.901-2.503 1.769-0.13 0.311-0.168 0.745-0.168 1.178v8.207h-4.809s0.064-13.090 0-14.545h4.809v1.979c0.727-0.991 1.897-2.405 4.48-2.405 3.203 0 5.702 2.078 5.702 6.549v8.423zM17.479 14.391c0.012-0.018 0.023-0.033 0.034-0.048l-0.002 0.002v0.046h-0.032z"></path>
</symbol>
<symbol id="icon-sl" viewBox="0 0 32 32">
<path  d="M15.634 0.011c9.123-0.205 16.601 7.246 16.358 16.452-0.22 8.391-7.106 15.627-16.183 15.536-8.649-0.087-15.762-7.095-15.806-16 0.053-8.892 7.125-15.795 15.631-15.988z"></path>
<path fill="#fff" style="fill: var(--color2, #fff)" d="M27.275 17.956c0.848-0.628 1.362-1.443 1.26-2.541-0.101-1.077-0.645-1.877-1.631-2.315-1.067-0.47-2.087-0.338-3.003 0.41-0.105 0.085-0.169 0.089-0.275 0.019-1.697-1.12-3.568-1.746-5.584-1.951l-0.711-0.074 0.797-2.478 0.5-1.557 0.099 0.014c0.061 0.009 0.115 0.017 0.17 0.029l0.865 0.187c0.74 0.161 1.482 0.322 2.224 0.474 0.212 0.043 0.318 0.117 0.378 0.341 0.256 0.922 1.088 1.588 2.075 1.588 0.115 0 0.229-0.009 0.339-0.027l-0.012 0.002c1.462-0.237 2.257-1.813 1.548-3.075-0.567-1.009-2.33-1.613-3.465-0.292-0.111 0.13-0.206 0.16-0.371 0.125-0.974-0.213-1.95-0.421-2.925-0.629l-1.090-0.231c-0.557-0.119-0.816 0.032-0.988 0.577-0.16 0.511-0.322 1.021-0.483 1.532-0.322 1.022-0.645 2.045-0.966 3.068-0.042 0.132-0.077 0.229-0.255 0.228-0.903-0.006-1.793 0.122-2.676 0.308-1.583 0.335-3.056 0.933-4.395 1.846-0.123 0.083-0.197 0.050-0.309-0.002-0.212-0.097-0.334-0.157-0.454-0.219l0.083 0.039c-0.332-0.164-0.665-0.331-1.017-0.422-1.669-0.443-3.651 0.914-3.31 3.143 0.133 0.877 0.655 1.511 1.373 1.993 0.118 0.079 0.144 0.149 0.123 0.279-0.201 1.205-0.075 2.377 0.412 3.502 0.692 1.6 1.883 2.757 3.329 3.669 1.651 1.043 3.483 1.571 5.403 1.813 1.679 0.209 3.349 0.129 4.999-0.242 2.374-0.537 4.49-1.555 6.117-3.423 1.291-1.481 1.862-3.202 1.597-5.167-0.036-0.261 0.027-0.388 0.23-0.54zM21.628 18.038c0.003 0.886-0.793 1.68-1.687 1.681-0.931 0-1.693-0.783-1.694-1.743 0-0.879 0.784-1.649 1.685-1.652 0.927-0.002 1.692 0.77 1.696 1.714zM20.34 22.934c-0.228 0.261-0.498 0.506-0.794 0.686-0.81 0.486-1.703 0.734-2.642 0.819-0.191 0.018-0.382 0.031-0.535 0.042l-0.165 0.011c-1.51-0.017-2.814-0.357-3.974-1.172-0.135-0.094-0.263-0.215-0.359-0.35-0.169-0.239-0.147-0.529 0.021-0.7 0.255-0.258 0.59-0.313 0.857-0.157 0.091 0.052 0.179 0.107 0.269 0.16l-0.025-0.015c0.256 0.166 0.525 0.313 0.845 0.457 1.856 0.772 3.648 0.61 5.362-0.432 0.043-0.027 0.085-0.055 0.128-0.084 0.053-0.036 0.106-0.074 0.162-0.106 0.249-0.142 0.569-0.073 0.817 0.173 0.178 0.177 0.228 0.445 0.034 0.669zM13.965 18.034c0.004 0.858-0.802 1.683-1.643 1.685-0.955 0.001-1.747-0.766-1.75-1.694-0.002-0.917 0.774-1.7 1.685-1.7 0.924 0 1.705 0.779 1.708 1.709z"></path>
</symbol>
<symbol id="icon-youtube" viewBox="0 0 46 32">
<path d="M45.715 6.836c0-0.001 0-0.001 0-0.002 0-3.774-3.059-6.833-6.833-6.834h-32.051c-3.773 0.001-6.831 3.060-6.831 6.834 0 0.001 0 0.002 0 0.002v-0 18.328c0 0.001 0 0.001 0 0.002 0 3.773 3.058 6.832 6.831 6.834h32.051c3.774-0.001 6.833-3.060 6.833-6.834 0-0.001 0-0.002 0-0.002v0-18.328z"></path>
<path fill="#fff" style="fill: var(--color2, #fff)" d="M18.285 24.94v-17.216l13.055 8.608-13.054 8.608z"></path>
</symbol>
<symbol id="icon-arrow" viewBox="0 0 32 32">
<path fill="#4cb649" style="fill: var(--color1, #4cb649)" d="M26.447 15.477c0.136 0.133 0.22 0.318 0.22 0.523s-0.084 0.39-0.22 0.523l-0 0-6.017 5.925c-0.137 0.134-0.324 0.217-0.531 0.217s-0.394-0.083-0.531-0.217l0 0c-0.136-0.133-0.22-0.318-0.22-0.523s0.084-0.39 0.22-0.523l0-0 4.732-4.663h-16.68c-0.002 0-0.003 0-0.005 0-0.41 0-0.743-0.331-0.747-0.74v-0c0.003-0.41 0.336-0.741 0.747-0.741 0.002 0 0.004 0 0.006 0h16.68l-4.733-4.66c-0.136-0.133-0.22-0.319-0.22-0.524s0.084-0.391 0.22-0.524l0-0c0.137-0.135 0.325-0.219 0.532-0.219s0.395 0.084 0.532 0.219l-0-0 6.017 5.927z"></path>
</symbol>
</defs>
</svg>
